<svg xmlns="http://www.w3.org/2000/svg" width="1400" height="1400" viewBox="0 0 1400 1400">
  <defs>
    <style>
      .cls-1 {
        fill: #fff;
        fill-rule: evenodd;
      }
    </style>
  </defs>
  <path id="Wallace_Sidhrée_-_converted_to_shape" class="cls-1" d="M556.244,420.758c-1.09,29.955-21.8,74.071-62.114,132.892-25.063,37.036-50.127,68.08-74.1,93.679-21.795,22.33-43.044,40.3-64.293,53.375-8.173,4.9-15.8,7.625-22.884,7.625-8.718,0-13.622-4.358-13.622-13.072,0-9.259,8.718-34.312,25.064-76.25,15.8-38.669,26.7-64.812,34.326-78.428,1.089-1.634,1.089-2.179,0-2.723-0.545-.545-1.635,0-2.725,1.089Q259.025,697.435,183.017,743.73c-8.173,4.9-15.256,7.625-22.884,7.625-9.807,0-15.256-4.357-15.256-12.527,0-3.812,1.09-7.625,3.269-11.982,38.14-75.705,94.805-164.481,169.451-267.419,13.076-17.973,19.614-32.678,19.614-43.571s-5.993-17.429-17.98-19.063C279.457,391.347,201,439.82,169.4,464.329,125.807,498.641,66.418,568.9,66.418,628.266c0,16.339,8.718,35.4,27.243,35.4,13.076,0,24.518-7.625,33.781-23.42q2.451,2.451,0,8.17c-3.814,10.348-13.077,19.607-27.243,28.321S72.956,689.811,59.88,689.811c-51.217,0-29.422-74.616-15.256-100.759,27.243-49.018,61.568-90.411,103.522-124.723,26.153-21.241,55.576-39.214,87.722-55.009,34.326-16.339,73.011-32.134,111.151-32.134,25.608,0,38.14,8.715,38.14,26.688,0,14.16-8.718,34.857-27.243,62.089-19.615,29.411-49.582,71.348-72.466,108.928q-53.94,88.233-53.941,104.571a4.16,4.16,0,0,0,1.09,2.724c27.788-27.777,70.287-76.25,111.151-129.625,50.671-65.357,82.818-106.75,98.074-124.723a6.19,6.19,0,0,1,4.359-1.634c3.269,0,6.538,1.634,9.807,4.357a14.878,14.878,0,0,1,4.359,10.348,8.09,8.09,0,0,1-1.09,4.9c-12.531,30.5-26.7,61-39.229,92.045-18.526,45.205-34.871,86.053-43.044,118.187-1.09,3.812,0,7.08,2.179,7.625,1.09,0,4.359-1.634,6.539-3.813,9.807-7.625,32.691-29.41,56.12-59.366a396.75,396.75,0,0,0,37.05-57.187c0-23.42,4.9-50.107,16.346-80.607,14.166-37.58,31.6-56.643,51.761-56.643C553.519,406.052,556.789,410.954,556.244,420.758ZM557.331,620.1c-1.635.544-3.27,0-4.9,0,35.416-40.3,17.98-56.643-1.635-54.465-28.877,3.813-67.017,37.581-67.562,74.616-0.545,41.393,45.768,15.795,59.389-.544,4.9-6.536,9.263-11.438,14.712-19.607h0Zm71.376,14.16c0,1.09-1.09,2.723-2.18,3.813-6.538,6.535-23.428,21.241-28.877,25.6-19.615,14.161-39.23,25.053-55.575,20.7-8.173-2.178-10.9-14.16-3.814-27.776a104.447,104.447,0,0,1-29.967,19.062c-28.878,11.982-61.024,11.982-61.569-21.786-0.545-29.955,28.332-62.089,61.569-82.241,30.511-18.517,64.837-26.687,85.542-15.794,19.07,9.8,8.718,43.027-17.98,59.366,8.173-1.09,21.249-1.09,16.89,3.812-17.435,21.241-23.429,34.313-17.98,39.759,10.352,9.259,43.044-25.053,49.582-31.044,1.09-.545,2.179-0.545,2.724.544C628.162,628.811,628.707,632.623,628.707,634.257ZM787.8,443.633c-13.077,13.071-36.5,41.392-60.479,73.526-39.775,52.83-81.184,116.009-85.542,137.25-1.09,6.536,1.634,10.348,9.807,7.625,5.993-1.634,32.691-21.786,44.678-33.768,0.545-1.089,1.635-1.089,2.724-.544a4.389,4.389,0,0,1,1.635,4.9c-0.545,1.634-1.09,3.813-2.724,4.9-13.622,14.705-37.05,32.134-53.4,39.759-10.352,4.357-31.057,8.714-39.775.545-8.172-7.081,1.09-23.42,4.9-31.045,14.166-26.143,29.422-51.2,45.768-76.25,26.7-41.393,56.12-81.151,86.087-120.366C749.114,440.365,795.972,435.463,787.8,443.633Zm74.633,0c-13.077,13.071-36.5,41.392-60.479,73.526-39.775,52.83-81.184,116.009-85.542,137.25-1.09,6.536,1.634,10.348,9.807,7.625,5.993-1.634,32.691-21.786,44.678-33.768,0.545-1.089,1.635-1.089,2.724-.544a4.389,4.389,0,0,1,1.635,4.9c-0.545,1.634-1.09,3.813-2.724,4.9-13.622,14.705-37.051,32.134-53.4,39.759-10.352,4.357-31.057,8.714-39.775.545-8.173-7.081,1.09-23.42,4.9-31.045,14.166-26.143,29.422-51.2,45.768-76.25,26.7-41.393,56.12-81.151,86.087-120.366C823.747,440.365,870.605,435.463,862.432,443.633ZM864.06,620.1c-1.635.544-3.269,0-4.9,0,35.416-40.3,17.98-56.643-1.634-54.465-28.878,3.813-67.018,37.581-67.563,74.616-0.544,41.393,45.768,15.795,59.39-.544,4.9-6.536,9.262-11.438,14.711-19.607h0Zm71.376,14.16c0,1.09-1.09,2.723-2.179,3.813-6.539,6.535-23.429,21.241-28.878,25.6-19.615,14.161-39.229,25.053-55.575,20.7-8.173-2.178-10.9-14.16-3.814-27.776a104.447,104.447,0,0,1-29.967,19.062c-28.878,11.982-61.024,11.982-61.569-21.786-0.545-29.955,28.333-62.089,61.569-82.241,30.512-18.517,64.838-26.687,85.542-15.794,19.07,9.8,8.718,43.027-17.98,59.366,8.173-1.09,21.249-1.09,16.891,3.812-17.436,21.241-23.429,34.313-17.981,39.759,10.353,9.259,43.044-25.053,49.582-31.044,1.09-.545,2.18-0.545,2.724.544C934.891,628.811,935.436,632.623,935.436,634.257Zm134.574-21.241c-9.81,10.893-22.88,24.509-36.51,35.947a190.815,190.815,0,0,1-35.956,24.508C970.3,687.632,922.9,695.8,914.726,658.221c-7.628-31.589,29.967-82.785,82.818-102.392,19.066-7.081,37.046-10.893,52.306-3.268,6.54,3.268,8.72,10.348,4.9,20.152-1.63,4.9-10.35,19.607-11.98,23.419-0.55,1.634,4.36,1.634,3.27,3.268-1.64,3.813-28.34,22.33-39.23,15.8-10.9-7.081,19.07-34.313,24.51-43.572,5.45-8.714-1.08-14.705-13.07-11.437-15.8,4.357-26.7,9.8-40.321,21.786-23.974,22.33-34.871,54.464-23.429,70.258,10.9,15.25,33.236,14.161,50.13,5.447,22.88-11.438,51.76-41.393,61.02-52.83C1067.29,602.668,1073.28,609.2,1070.01,613.016Zm67.56-25.053c15.25-19.063,10.35-29.956-14.71-19.063-25.61,10.893-45.23,37.036-48.5,57.732C1102.15,620.1,1127.76,600.489,1137.57,587.963Zm46.85,27.232c-14.71,17.973-39.77,43.571-61.02,55.553-26.15,14.161-77.37,28.866-87.18-13.616-7.62-31.044,31.61-80.062,84.46-99.669,50.67-18.518,83.36-.545,29.42,40.848-24.52,18.518-59.39,37.036-77.92,38.669-0.54,8.17,4.36,15.795,6,17.974,29.42,31.589,86.08-26.688,104.06-48.474C1183.88,604.847,1188.24,610.838,1184.42,615.2ZM539.348,964.407c1.09-7.08-18.525-13.616-60.479-19.607-44.133-6.535-127.5-15.25-153.649-21.241h-0.545c-0.545,4.9-1.635,16.884-2.724,21.786-4.9,35.946,45.768,50.652,77.914,53.375,42.5,4.36,92.081-6.536,116.6-18.518C534.445,972.032,538.259,968.22,539.348,964.407Zm154.739-166.66c-13.621,19.607-31.056,34.312-52.306,46.3-43.588,23.419-101.888,28.321-144.932,11.982-24.518-8.715-48.492-21.241-62.113-44.661-10.352-16.884-8.173-32.678,5.993-41.393,5.994-3.268,9.808-5.991,12.532-.544-3.269,1.089-10.9,3.812-12.532,9.8-10.352,29.411,56.665,47.384,74.646,50.652,44.678,7.625,85.542,4.9,123.137-8.17,25.608-9.259,50.127-21.241,18.525-45.205-61.024-46.839-166.726-50.107-257.172-32.134-28.877,5.447-80.639,17.973-112.785,42.482-46.858,35.4-31.057,74.071,16.346,88.232,69.741,20.7,153.649,18.518,246.275,35.947,27.242,4.9,43.043,13.616,26.7,38.124-23.974,36.491-78.46,65.353-110.061,74.073-40.865,10.89-139.484,17.43-164-21.24-19.07-29.958,21.794-64.815,17.98-79.52-58.3-6.536-125.862-55.553-70.286-129.08C280,753.086,368.808,719.863,427.653,710.6a502.984,502.984,0,0,1,134.034-4.9c53.941,5.991,110.061,21.785,131.856,38.669C715.882,761.256,707.709,778.14,694.087,797.747Zm9.8,69.17c-4.359,4.9-14.166,15.25-23.974,28.866-14.166,19.062-29.967,44.66-35.415,68.08-1.635,6.535,2.179,10.348,9.807,7.625,5.994-1.634,30.512-21.786,41.954-33.768a2.569,2.569,0,0,1,3.269-.545c1.635,1.09,1.635,5.991,1.09,8.715-0.545.544-1.09,1.634-2.179,2.723-17.981,17.428-48.493,38.669-63.749,41.393-11.986,2.723-33.781,4.9-29.967-15.25,2.725-15.795,20.705-41.938,28.878-55.554,12.531-20.152,26.153-39.759,29.967-45.205C671.2,863.649,712.06,859.292,703.887,866.917Zm20.705-19.608c-9.263,7.081-20.705,8.17-28.333,7.081-17.435-2.723-26.7-20.7-10.9-34.857,7.628-7.081,18.525-9.259,28.877-7.625C733.309,814.086,739.3,835.872,724.592,847.309ZM791.6,929.55c8.718-12.526,43.044-61-5.448-54.464C757.82,878.9,718.046,912.666,717.5,949.7c-0.545,41.393,45.768,15.795,59.389-.545,4.9-6.535,9.263-11.437,14.711-19.607h0ZM953.423,753.086A340.324,340.324,0,0,0,919.1,792.3C876.6,847.309,816.12,930.1,809.581,963.863c-1.634,6.535,2.18,10.348,9.808,7.625,6.538-1.634,31.057-21.786,42.5-33.768,1.089-1.089,2.179-1.089,2.724-.545,1.634,1.09,2.179,5.991,1.09,8.715-0.545.544-6.539,7.08-7.084,8.169-17.98,17.429-43.043,33.223-58.844,35.947-11.987,2.723-33.236,4.9-29.967-15.25,0-1.634,1.634-4.358,2.724-7.625a113.4,113.4,0,0,1-32.691,19.607c-27.788,10.893-58.3,9.8-58.845-23.42-0.545-32.134,29.967-66.991,64.838-87.143,28.333-15.794,59.39-22.33,80.639-10.892,0.545,0.544,1.634.544,2.179,1.089,10.9-16.884,23.429-34.313,35.961-51.2,13.621-19.063,28.332-37.581,42.5-55.554C914.739,749.274,961.6,744.917,953.423,753.086Zm67.557,1.634c-25.606,28.866-47.945,56.643-67.56,84.42-20.7,29.955-39.23,58.821-56.12,87.687v1.089c26.153-25.053,67.017-68.08,98.074-66.991,9.266,0.545,19.616,5.447,15.8,14.706-5.44,15.25-48.488,55.553-56.116,82.241-2.179,7.625-1.089,16.339,9.808,13.616,4.9-1.09,29.967-19.607,46.308-36.491,2.73-2.723,3.27,8.714,0,11.982-8.17,7.625-25.059,24.509-42.494,34.312-18.525,10.349-36.506,15.795-48.493,8.17-6.538-3.813-4.9-19.607,2.725-33.223,11.987-20.7,29.967-45.75,41.954-62.089,0.545-1.09,0-2.179-1.635-1.634-22.884,3.812-65.927,55.009-93.715,95.857-4.359,6.535-31.6,2.723-29.967-7.081,4.359-21.241,39.774-81.151,77.369-137.249,21.25-32.134,43.044-63.179,59.934-84.42,5.449-7.08,33.782-11.982,44.132-10.348C1025.34,749.819,1024.25,752,1020.98,754.72Zm104.61,188.991a6.244,6.244,0,0,1-1.63,3.268c-11.45,11.982-36.51,31.589-49.04,38.669-52.85,27.232-56.67-8.714-37.6-32.133,16.35-20.152,29.43-34.857,31.61-40.849,4.9-13.071-21.25,2.724-27.25-1.089-7.63,10.348-17.98,21.241-28.33,33.223-6.54,7.081-26.7,24.509-46.312,35.4-3.814,1.634-11.442-3.812-7.628-5.446,16.89-5.991,36.5-25.054,47.95-37.036,12.53-13.616,23.43-26.143,26.69-31.045-15.25-28.321,46.86-99.669,64.3-96.4,19.07,3.812-21.25,68.625-44.68,90.41,7.63-2.178,25.61-9.259,39.77-14.7,16.89-6.536,29.97-.545,20.71,13.616-11.99,17.429-26.7,28.321-39.78,51.2-9.8,16.884,0,25.054,15.81,14.161,5.44-3.812,23.97-20.7,31.05-27.777,1.64-1.089,2.18-.544,3.27,0C1125.59,938.265,1125.59,941.532,1125.59,943.711Zm83.36-46.295c15.25-19.062,10.35-29.955-14.72-19.062-25.6,10.893-45.22,37.036-48.49,57.732C1173.53,929.55,1199.14,909.943,1208.95,897.416Zm46.85,27.233c-14.71,17.973-39.77,43.571-61.02,55.553-26.15,14.161-77.37,28.868-87.18-13.616-7.63-31.045,31.6-80.062,84.45-99.669,50.68-18.518,83.37-.545,29.43,40.848-24.52,18.518-59.39,37.035-77.92,38.669-0.54,8.17,4.36,15.8,6,17.973,29.42,31.59,86.08-26.687,104.06-48.473C1255.26,914.3,1259.62,920.291,1255.8,924.649Zm-73.55-104.027c-4.91,4.357-3.82-8.17,1.09-16.339a15.891,15.891,0,0,1,4.9-6.536c13.08-9.8,69.2-53.375,81.18-53.375,11.45,0.545-9.26,37.036-25.06,55.554-0.54.544-2.18,1.089-2.18,0.544,0.55-5.991-3.81-7.08-8.72-5.991-11.98,3.268-26.69,10.893-37.59,17.429C1190.42,815.176,1185.52,818.443,1182.25,820.622Zm140.57,76.794c15.26-19.062,10.35-29.955-14.71-19.062-25.61,10.893-45.22,37.036-48.49,57.732C1287.4,929.55,1313.01,909.943,1322.82,897.416Zm46.86,27.233c-14.71,17.973-39.78,43.571-61.03,55.553-26.15,14.161-77.37,28.868-87.17-13.616-7.63-31.045,31.6-80.062,84.45-99.669,50.67-18.518,83.36-.545,29.42,40.848-24.52,18.518-59.39,37.035-77.91,38.669-0.55,8.17,4.36,15.8,5.99,17.973,29.42,31.59,86.09-26.687,104.07-48.473C1369.13,914.3,1373.49,920.291,1369.68,924.649Z"/>
</svg>
